ISO-10303-21;
HEADER;
FILE_DESCRIPTION(('Open CASCADE Model'),'2;1');
FILE_NAME('Open CASCADE Shape Model','2026-08-04T21:00:28',('Author'),(
    'Open CASCADE'),'Open CASCADE STEP processor 7.9','Open CASCADE 7.9'
  ,'Unknown');
FILE_SCHEMA(('AUTOMOTIVE_DESIGN { 1 0 10303 214 1 1 1 1 }'));
ENDSEC;
DATA;
#1 = APPLICATION_PROTOCOL_DEFINITION('international standard',
  'automotive_design',2000,#2);
#2 = APPLICATION_CONTEXT(
  'core data for automotive mechanical design processes');
#3 = SHAPE_DEFINITION_REPRESENTATION(#4,#10);
#4 = PRODUCT_DEFINITION_SHAPE('','',#5);
#5 = PRODUCT_DEFINITION('design','',#6,#9);
#6 = PRODUCT_DEFINITION_FORMATION('','',#7);
#7 = PRODUCT('Open CASCADE STEP translator 7.9 1',
  'Open CASCADE STEP translator 7.9 1','',(#8));
#8 = PRODUCT_CONTEXT('',#2,'mechanical');
#9 = PRODUCT_DEFINITION_CONTEXT('part definition',#2,'design');
#10 = ADVANCED_BREP_SHAPE_REPRESENTATION('',(#11,#15),#537);
#11 = AXIS2_PLACEMENT_3D('',#12,#13,#14);
#12 = CARTESIAN_POINT('',(0.,0.,0.));
#13 = DIRECTION('',(0.,0.,1.));
#14 = DIRECTION('',(1.,0.,-0.));
#15 = MANIFOLD_SOLID_BREP('',#16);
#16 = CLOSED_SHELL('',(#17,#213,#265,#495,#501,#505,#532));
#17 = ADVANCED_FACE('',(#18),#32,.T.);
#18 = FACE_BOUND('',#19,.F.);
#19 = EDGE_LOOP('',(#20,#53,#86,#109,#136,#137,#165,#186));
#20 = ORIENTED_EDGE('',*,*,#21,.F.);
#21 = EDGE_CURVE('',#22,#24,#26,.T.);
#22 = VERTEX_POINT('',#23);
#23 = CARTESIAN_POINT('',(0.,12.5,3.));
#24 = VERTEX_POINT('',#25);
#25 = CARTESIAN_POINT('',(4.440892098501E-16,12.5,2.));
#26 = SURFACE_CURVE('',#27,(#31,#42),.PCURVE_S1.);
#27 = LINE('',#28,#29);
#28 = CARTESIAN_POINT('',(0.,12.5,0.));
#29 = VECTOR('',#30,1.);
#30 = DIRECTION('',(-0.,-0.,-1.));
#31 = PCURVE('',#32,#37);
#32 = CYLINDRICAL_SURFACE('',#33,12.5);
#33 = AXIS2_PLACEMENT_3D('',#34,#35,#36);
#34 = CARTESIAN_POINT('',(0.,0.,0.));
#35 = DIRECTION('',(-0.,-0.,-1.));
#36 = DIRECTION('',(1.,0.,0.));
#37 = DEFINITIONAL_REPRESENTATION('',(#38),#41);
#38 = B_SPLINE_CURVE_WITH_KNOTS('',1,(#39,#40),.UNSPECIFIED.,.F.,.F.,(2,
    2),(-3.3,6.E-07),.PIECEWISE_BEZIER_KNOTS.);
#39 = CARTESIAN_POINT('',(-1.570796326795,-3.3));
#40 = CARTESIAN_POINT('',(-1.570796326795,6.E-07));
#41 = ( GEOMETRIC_REPRESENTATION_CONTEXT(2) 
PARAMETRIC_REPRESENTATION_CONTEXT() REPRESENTATION_CONTEXT('2D SPACE',''
  ) );
#42 = PCURVE('',#43,#48);
#43 = PLANE('',#44);
#44 = AXIS2_PLACEMENT_3D('',#45,#46,#47);
#45 = CARTESIAN_POINT('',(0.,0.,0.));
#46 = DIRECTION('',(1.,0.,-0.));
#47 = DIRECTION('',(0.,-1.,0.));
#48 = DEFINITIONAL_REPRESENTATION('',(#49),#52);
#49 = B_SPLINE_CURVE_WITH_KNOTS('',1,(#50,#51),.UNSPECIFIED.,.F.,.F.,(2,
    2),(-3.3,6.E-07),.PIECEWISE_BEZIER_KNOTS.);
#50 = CARTESIAN_POINT('',(-12.5,-3.3));
#51 = CARTESIAN_POINT('',(-12.5,6.E-07));
#52 = ( GEOMETRIC_REPRESENTATION_CONTEXT(2) 
PARAMETRIC_REPRESENTATION_CONTEXT() REPRESENTATION_CONTEXT('2D SPACE',''
  ) );
#53 = ORIENTED_EDGE('',*,*,#54,.T.);
#54 = EDGE_CURVE('',#22,#55,#57,.T.);
#55 = VERTEX_POINT('',#56);
#56 = CARTESIAN_POINT('',(12.5,0.,3.));
#57 = SURFACE_CURVE('',#58,(#63,#70),.PCURVE_S1.);
#58 = CIRCLE('',#59,12.5);
#59 = AXIS2_PLACEMENT_3D('',#60,#61,#62);
#60 = CARTESIAN_POINT('',(0.,0.,3.));
#61 = DIRECTION('',(0.,0.,-1.));
#62 = DIRECTION('',(1.,0.,0.));
#63 = PCURVE('',#32,#64);
#64 = DEFINITIONAL_REPRESENTATION('',(#65),#69);
#65 = LINE('',#66,#67);
#66 = CARTESIAN_POINT('',(-6.28318530718,-3.));
#67 = VECTOR('',#68,1.);
#68 = DIRECTION('',(1.,-0.));
#69 = ( GEOMETRIC_REPRESENTATION_CONTEXT(2) 
PARAMETRIC_REPRESENTATION_CONTEXT() REPRESENTATION_CONTEXT('2D SPACE',''
  ) );
#70 = PCURVE('',#71,#76);
#71 = PLANE('',#72);
#72 = AXIS2_PLACEMENT_3D('',#73,#74,#75);
#73 = CARTESIAN_POINT('',(29.289321881345,0.,3.));
#74 = DIRECTION('',(0.,0.,1.));
#75 = DIRECTION('',(1.,0.,-0.));
#76 = DEFINITIONAL_REPRESENTATION('',(#77),#85);
#77 = ( BOUNDED_CURVE() B_SPLINE_CURVE(2,(#78,#79,#80,#81,#82,#83,#84),
.UNSPECIFIED.,.T.,.F.) B_SPLINE_CURVE_WITH_KNOTS((1,2,2,2,2,1),(
    -2.094395102393,0.,2.094395102393,4.188790204786,6.28318530718,
8.377580409573),.UNSPECIFIED.) CURVE() GEOMETRIC_REPRESENTATION_ITEM() 
RATIONAL_B_SPLINE_CURVE((1.,0.5,1.,0.5,1.,0.5,1.)) REPRESENTATION_ITEM(
  '') );
#78 = CARTESIAN_POINT('',(-16.78932188134,0.));
#79 = CARTESIAN_POINT('',(-16.78932188134,-21.65063509461));
#80 = CARTESIAN_POINT('',(-35.53932188134,-10.8253175473));
#81 = CARTESIAN_POINT('',(-54.28932188134,-3.061616997868E-15));
#82 = CARTESIAN_POINT('',(-35.53932188134,10.825317547305));
#83 = CARTESIAN_POINT('',(-16.78932188134,21.650635094611));
#84 = CARTESIAN_POINT('',(-16.78932188134,0.));
#85 = ( GEOMETRIC_REPRESENTATION_CONTEXT(2) 
PARAMETRIC_REPRESENTATION_CONTEXT() REPRESENTATION_CONTEXT('2D SPACE',''
  ) );
#86 = ORIENTED_EDGE('',*,*,#87,.T.);
#87 = EDGE_CURVE('',#55,#88,#90,.T.);
#88 = VERTEX_POINT('',#89);
#89 = CARTESIAN_POINT('',(12.5,0.,750.));
#90 = SEAM_CURVE('',#91,(#95,#102),.PCURVE_S1.);
#91 = LINE('',#92,#93);
#92 = CARTESIAN_POINT('',(12.5,0.,0.));
#93 = VECTOR('',#94,1.);
#94 = DIRECTION('',(0.,0.,1.));
#95 = PCURVE('',#32,#96);
#96 = DEFINITIONAL_REPRESENTATION('',(#97),#101);
#97 = LINE('',#98,#99);
#98 = CARTESIAN_POINT('',(-0.,0.));
#99 = VECTOR('',#100,1.);
#100 = DIRECTION('',(-0.,-1.));
#101 = ( GEOMETRIC_REPRESENTATION_CONTEXT(2) 
PARAMETRIC_REPRESENTATION_CONTEXT() REPRESENTATION_CONTEXT('2D SPACE',''
  ) );
#102 = PCURVE('',#32,#103);
#103 = DEFINITIONAL_REPRESENTATION('',(#104),#108);
#104 = LINE('',#105,#106);
#105 = CARTESIAN_POINT('',(-6.28318530718,0.));
#106 = VECTOR('',#107,1.);
#107 = DIRECTION('',(-0.,-1.));
#108 = ( GEOMETRIC_REPRESENTATION_CONTEXT(2) 
PARAMETRIC_REPRESENTATION_CONTEXT() REPRESENTATION_CONTEXT('2D SPACE',''
  ) );
#109 = ORIENTED_EDGE('',*,*,#110,.T.);
#110 = EDGE_CURVE('',#88,#88,#111,.T.);
#111 = SURFACE_CURVE('',#112,(#117,#124),.PCURVE_S1.);
#112 = CIRCLE('',#113,12.5);
#113 = AXIS2_PLACEMENT_3D('',#114,#115,#116);
#114 = CARTESIAN_POINT('',(0.,0.,750.));
#115 = DIRECTION('',(0.,0.,1.));
#116 = DIRECTION('',(1.,0.,0.));
#117 = PCURVE('',#32,#118);
#118 = DEFINITIONAL_REPRESENTATION('',(#119),#123);
#119 = LINE('',#120,#121);
#120 = CARTESIAN_POINT('',(-0.,-750.));
#121 = VECTOR('',#122,1.);
#122 = DIRECTION('',(-1.,0.));
#123 = ( GEOMETRIC_REPRESENTATION_CONTEXT(2) 
PARAMETRIC_REPRESENTATION_CONTEXT() REPRESENTATION_CONTEXT('2D SPACE',''
  ) );
#124 = PCURVE('',#125,#130);
#125 = PLANE('',#126);
#126 = AXIS2_PLACEMENT_3D('',#127,#128,#129);
#127 = CARTESIAN_POINT('',(-4.375808424126E-16,8.024730275931E-16,750.)
  );
#128 = DIRECTION('',(0.,0.,1.));
#129 = DIRECTION('',(1.,0.,-0.));
#130 = DEFINITIONAL_REPRESENTATION('',(#131),#135);
#131 = CIRCLE('',#132,12.5);
#132 = AXIS2_PLACEMENT_2D('',#133,#134);
#133 = CARTESIAN_POINT('',(4.375808424126E-16,-8.024730275931E-16));
#134 = DIRECTION('',(1.,0.));
#135 = ( GEOMETRIC_REPRESENTATION_CONTEXT(2) 
PARAMETRIC_REPRESENTATION_CONTEXT() REPRESENTATION_CONTEXT('2D SPACE',''
  ) );
#136 = ORIENTED_EDGE('',*,*,#87,.F.);
#137 = ORIENTED_EDGE('',*,*,#138,.T.);
#138 = EDGE_CURVE('',#55,#139,#141,.T.);
#139 = VERTEX_POINT('',#140);
#140 = CARTESIAN_POINT('',(0.,-12.5,3.));
#141 = SURFACE_CURVE('',#142,(#147,#154),.PCURVE_S1.);
#142 = CIRCLE('',#143,12.5);
#143 = AXIS2_PLACEMENT_3D('',#144,#145,#146);
#144 = CARTESIAN_POINT('',(0.,0.,3.));
#145 = DIRECTION('',(0.,0.,-1.));
#146 = DIRECTION('',(1.,0.,0.));
#147 = PCURVE('',#32,#148);
#148 = DEFINITIONAL_REPRESENTATION('',(#149),#153);
#149 = LINE('',#150,#151);
#150 = CARTESIAN_POINT('',(-6.28318530718,-3.));
#151 = VECTOR('',#152,1.);
#152 = DIRECTION('',(1.,-0.));
#153 = ( GEOMETRIC_REPRESENTATION_CONTEXT(2) 
PARAMETRIC_REPRESENTATION_CONTEXT() REPRESENTATION_CONTEXT('2D SPACE',''
  ) );
#154 = PCURVE('',#71,#155);
#155 = DEFINITIONAL_REPRESENTATION('',(#156),#164);
#156 = ( BOUNDED_CURVE() B_SPLINE_CURVE(2,(#157,#158,#159,#160,#161,#162
,#163),.UNSPECIFIED.,.T.,.F.) B_SPLINE_CURVE_WITH_KNOTS((1,2,2,2,2,1),(
    -2.094395102393,0.,2.094395102393,4.188790204786,6.28318530718,
8.377580409573),.UNSPECIFIED.) CURVE() GEOMETRIC_REPRESENTATION_ITEM() 
RATIONAL_B_SPLINE_CURVE((1.,0.5,1.,0.5,1.,0.5,1.)) REPRESENTATION_ITEM(
  '') );
#157 = CARTESIAN_POINT('',(-16.78932188134,0.));
#158 = CARTESIAN_POINT('',(-16.78932188134,-21.65063509461));
#159 = CARTESIAN_POINT('',(-35.53932188134,-10.8253175473));
#160 = CARTESIAN_POINT('',(-54.28932188134,-3.061616997868E-15));
#161 = CARTESIAN_POINT('',(-35.53932188134,10.825317547305));
#162 = CARTESIAN_POINT('',(-16.78932188134,21.650635094611));
#163 = CARTESIAN_POINT('',(-16.78932188134,0.));
#164 = ( GEOMETRIC_REPRESENTATION_CONTEXT(2) 
PARAMETRIC_REPRESENTATION_CONTEXT() REPRESENTATION_CONTEXT('2D SPACE',''
  ) );
#165 = ORIENTED_EDGE('',*,*,#166,.T.);
#166 = EDGE_CURVE('',#139,#167,#169,.T.);
#167 = VERTEX_POINT('',#168);
#168 = CARTESIAN_POINT('',(4.440892098501E-16,-12.5,2.));
#169 = SURFACE_CURVE('',#170,(#174,#180),.PCURVE_S1.);
#170 = LINE('',#171,#172);
#171 = CARTESIAN_POINT('',(0.,-12.5,0.));
#172 = VECTOR('',#173,1.);
#173 = DIRECTION('',(-0.,-0.,-1.));
#174 = PCURVE('',#32,#175);
#175 = DEFINITIONAL_REPRESENTATION('',(#176),#179);
#176 = B_SPLINE_CURVE_WITH_KNOTS('',1,(#177,#178),.UNSPECIFIED.,.F.,.F.,
  (2,2),(-3.3,6.E-07),.PIECEWISE_BEZIER_KNOTS.);
#177 = CARTESIAN_POINT('',(-4.712388980385,-3.3));
#178 = CARTESIAN_POINT('',(-4.712388980385,6.E-07));
#179 = ( GEOMETRIC_REPRESENTATION_CONTEXT(2) 
PARAMETRIC_REPRESENTATION_CONTEXT() REPRESENTATION_CONTEXT('2D SPACE',''
  ) );
#180 = PCURVE('',#43,#181);
#181 = DEFINITIONAL_REPRESENTATION('',(#182),#185);
#182 = B_SPLINE_CURVE_WITH_KNOTS('',1,(#183,#184),.UNSPECIFIED.,.F.,.F.,
  (2,2),(-3.3,6.E-07),.PIECEWISE_BEZIER_KNOTS.);
#183 = CARTESIAN_POINT('',(12.5,-3.3));
#184 = CARTESIAN_POINT('',(12.5,6.E-07));
#185 = ( GEOMETRIC_REPRESENTATION_CONTEXT(2) 
PARAMETRIC_REPRESENTATION_CONTEXT() REPRESENTATION_CONTEXT('2D SPACE',''
  ) );
#186 = ORIENTED_EDGE('',*,*,#187,.F.);
#187 = EDGE_CURVE('',#24,#167,#188,.T.);
#188 = SURFACE_CURVE('',#189,(#194,#201),.PCURVE_S1.);
#189 = CIRCLE('',#190,12.5);
#190 = AXIS2_PLACEMENT_3D('',#191,#192,#193);
#191 = CARTESIAN_POINT('',(0.,0.,2.));
#192 = DIRECTION('',(0.,0.,1.));
#193 = DIRECTION('',(-9.042596461969E-15,1.,0.));
#194 = PCURVE('',#32,#195);
#195 = DEFINITIONAL_REPRESENTATION('',(#196),#200);
#196 = LINE('',#197,#198);
#197 = CARTESIAN_POINT('',(-1.570796326795,-2.));
#198 = VECTOR('',#199,1.);
#199 = DIRECTION('',(-1.,0.));
#200 = ( GEOMETRIC_REPRESENTATION_CONTEXT(2) 
PARAMETRIC_REPRESENTATION_CONTEXT() REPRESENTATION_CONTEXT('2D SPACE',''
  ) );
#201 = PCURVE('',#202,#207);
#202 = TOROIDAL_SURFACE('',#203,10.5,2.);
#203 = AXIS2_PLACEMENT_3D('',#204,#205,#206);
#204 = CARTESIAN_POINT('',(0.,0.,2.));
#205 = DIRECTION('',(-0.,-0.,-1.));
#206 = DIRECTION('',(-9.042596461969E-15,1.,0.));
#207 = DEFINITIONAL_REPRESENTATION('',(#208),#212);
#208 = LINE('',#209,#210);
#209 = CARTESIAN_POINT('',(-0.,0.));
#210 = VECTOR('',#211,1.);
#211 = DIRECTION('',(-1.,0.));
#212 = ( GEOMETRIC_REPRESENTATION_CONTEXT(2) 
PARAMETRIC_REPRESENTATION_CONTEXT() REPRESENTATION_CONTEXT('2D SPACE',''
  ) );
#213 = ADVANCED_FACE('',(#214),#43,.T.);
#214 = FACE_BOUND('',#215,.T.);
#215 = EDGE_LOOP('',(#216,#217,#243,#244));
#216 = ORIENTED_EDGE('',*,*,#166,.T.);
#217 = ORIENTED_EDGE('',*,*,#218,.F.);
#218 = EDGE_CURVE('',#24,#167,#219,.T.);
#219 = SURFACE_CURVE('',#220,(#224,#231),.PCURVE_S1.);
#220 = LINE('',#221,#222);
#221 = CARTESIAN_POINT('',(4.440892098501E-16,12.5,2.));
#222 = VECTOR('',#223,1.);
#223 = DIRECTION('',(0.,-1.,0.));
#224 = PCURVE('',#43,#225);
#225 = DEFINITIONAL_REPRESENTATION('',(#226),#230);
#226 = LINE('',#227,#228);
#227 = CARTESIAN_POINT('',(-12.5,-2.));
#228 = VECTOR('',#229,1.);
#229 = DIRECTION('',(1.,0.));
#230 = ( GEOMETRIC_REPRESENTATION_CONTEXT(2) 
PARAMETRIC_REPRESENTATION_CONTEXT() REPRESENTATION_CONTEXT('2D SPACE',''
  ) );
#231 = PCURVE('',#232,#237);
#232 = CYLINDRICAL_SURFACE('',#233,2.);
#233 = AXIS2_PLACEMENT_3D('',#234,#235,#236);
#234 = CARTESIAN_POINT('',(-2.,12.5,2.));
#235 = DIRECTION('',(0.,-1.,0.));
#236 = DIRECTION('',(1.,0.,0.));
#237 = DEFINITIONAL_REPRESENTATION('',(#238),#242);
#238 = LINE('',#239,#240);
#239 = CARTESIAN_POINT('',(-0.,0.));
#240 = VECTOR('',#241,1.);
#241 = DIRECTION('',(-0.,1.));
#242 = ( GEOMETRIC_REPRESENTATION_CONTEXT(2) 
PARAMETRIC_REPRESENTATION_CONTEXT() REPRESENTATION_CONTEXT('2D SPACE',''
  ) );
#243 = ORIENTED_EDGE('',*,*,#21,.F.);
#244 = ORIENTED_EDGE('',*,*,#245,.F.);
#245 = EDGE_CURVE('',#139,#22,#246,.T.);
#246 = SURFACE_CURVE('',#247,(#251,#258),.PCURVE_S1.);
#247 = LINE('',#248,#249);
#248 = CARTESIAN_POINT('',(0.,-100.,3.));
#249 = VECTOR('',#250,1.);
#250 = DIRECTION('',(0.,1.,0.));
#251 = PCURVE('',#43,#252);
#252 = DEFINITIONAL_REPRESENTATION('',(#253),#257);
#253 = LINE('',#254,#255);
#254 = CARTESIAN_POINT('',(100.,-3.));
#255 = VECTOR('',#256,1.);
#256 = DIRECTION('',(-1.,0.));
#257 = ( GEOMETRIC_REPRESENTATION_CONTEXT(2) 
PARAMETRIC_REPRESENTATION_CONTEXT() REPRESENTATION_CONTEXT('2D SPACE',''
  ) );
#258 = PCURVE('',#71,#259);
#259 = DEFINITIONAL_REPRESENTATION('',(#260),#264);
#260 = LINE('',#261,#262);
#261 = CARTESIAN_POINT('',(-29.28932188134,-100.));
#262 = VECTOR('',#263,1.);
#263 = DIRECTION('',(0.,1.));
#264 = ( GEOMETRIC_REPRESENTATION_CONTEXT(2) 
PARAMETRIC_REPRESENTATION_CONTEXT() REPRESENTATION_CONTEXT('2D SPACE',''
  ) );
#265 = ADVANCED_FACE('',(#266),#202,.T.);
#266 = FACE_BOUND('',#267,.F.);
#267 = EDGE_LOOP('',(#268,#372,#373,#468));
#268 = ORIENTED_EDGE('',*,*,#269,.F.);
#269 = EDGE_CURVE('',#24,#270,#272,.T.);
#270 = VERTEX_POINT('',#271);
#271 = CARTESIAN_POINT('',(-2.,10.307764064044,-4.440892098501E-16));
#272 = SURFACE_CURVE('',#273,(#304,#338),.PCURVE_S1.);
#273 = B_SPLINE_CURVE_WITH_KNOTS('',8,(#274,#275,#276,#277,#278,#279,
    #280,#281,#282,#283,#284,#285,#286,#287,#288,#289,#290,#291,#292,
    #293,#294,#295,#296,#297,#298,#299,#300,#301,#302,#303),
  .UNSPECIFIED.,.F.,.F.,(9,7,7,7,9),(0.,0.17477556741,0.295654510722,
    0.473634581178,1.),.UNSPECIFIED.);
#274 = CARTESIAN_POINT('',(8.881784197001E-16,12.5,2.));
#275 = CARTESIAN_POINT('',(8.881784197001E-16,12.5,1.908583382456));
#276 = CARTESIAN_POINT('',(-4.77556207527E-03,12.495224367642,
    1.817130184933));
#277 = CARTESIAN_POINT('',(-1.433275343449E-02,12.485667366609,
    1.726405358262));
#278 = CARTESIAN_POINT('',(-2.851939356809E-02,12.471470370041,
    1.637061939144));
#279 = CARTESIAN_POINT('',(-4.70730430286E-02,12.452875708837,
    1.549646078893));
#280 = CARTESIAN_POINT('',(-6.965948331509E-02,12.430190916352,
    1.464603036771));
#281 = CARTESIAN_POINT('',(-9.590168786204E-02,12.403763369511,
    1.382284137908));
#282 = CARTESIAN_POINT('',(-0.145800523964,12.353356290227,
    1.248088565085));
#283 = CARTESIAN_POINT('',(-0.167769281974,12.331124577395,
    1.194625374139));
#284 = CARTESIAN_POINT('',(-0.191185305781,12.307380741385,
    1.142628526414));
#285 = CARTESIAN_POINT('',(-0.215930289133,12.28223355509,1.092140610677
    ));
#286 = CARTESIAN_POINT('',(-0.241890147849,12.255787865109,
    1.043186042828));
#287 = CARTESIAN_POINT('',(-0.268957295754,12.22814244614,0.9957737077)
  );
#288 = CARTESIAN_POINT('',(-0.297032920614,12.199387855364,
    0.949899600846));
#289 = CARTESIAN_POINT('',(-0.368722969986,12.125751474425,
    0.840249103413));
#290 = CARTESIAN_POINT('',(-0.41340273838,12.079678195582,0.778267041372
    ));
#291 = CARTESIAN_POINT('',(-0.459791704148,12.031636464844,
    0.719545079758));
#292 = CARTESIAN_POINT('',(-0.507642961818,11.981851731026,0.66400807552
    ));
#293 = CARTESIAN_POINT('',(-0.556739802982,11.930522133256,
    0.611567414621));
#294 = CARTESIAN_POINT('',(-0.606895957741,11.877817757017,
    0.562124479643));
#295 = CARTESIAN_POINT('',(-0.657955836131,11.823879890184,
    0.515574117393));
#296 = CARTESIAN_POINT('',(-0.863105316292,11.605984770605,
    0.342372745595));
#297 = CARTESIAN_POINT('',(-1.022792785865,11.433801289541,
    0.237658489446));
#298 = CARTESIAN_POINT('',(-1.185967139512,11.254821949532,
    0.154303977234));
#299 = CARTESIAN_POINT('',(-1.350611313644,11.070856419319,
    9.048210900492E-02));
#300 = CARTESIAN_POINT('',(-1.51516343154,10.883369118086,
    4.435151571562E-02));
#301 = CARTESIAN_POINT('',(-1.678608112821,10.693351544141,
    1.457483376814E-02));
#302 = CARTESIAN_POINT('',(-1.840307115324,10.501419895057,
    -4.296952551124E-07));
#303 = CARTESIAN_POINT('',(-2.000000055055,10.307764053362,0.));
#304 = PCURVE('',#202,#305);
#305 = DEFINITIONAL_REPRESENTATION('',(#306),#337);
#306 = B_SPLINE_CURVE_WITH_KNOTS('',8,(#307,#308,#309,#310,#311,#312,
    #313,#314,#315,#316,#317,#318,#319,#320,#321,#322,#323,#324,#325,
    #326,#327,#328,#329,#330,#331,#332,#333,#334,#335,#336),
  .UNSPECIFIED.,.F.,.F.,(9,7,7,7,9),(0.,0.17477556741,0.295654510722,
    0.473634581178,1.),.UNSPECIFIED.);
#307 = CARTESIAN_POINT('',(7.993605777301E-15,0.));
#308 = CARTESIAN_POINT('',(7.993605777301E-15,4.570830877215E-02));
#309 = CARTESIAN_POINT('',(-3.820559671919E-04,9.143481681459E-02));
#310 = CARTESIAN_POINT('',(-1.146601451541E-03,0.136942991031));
#311 = CARTESIAN_POINT('',(-2.283189352863E-03,0.182051573803));
#312 = CARTESIAN_POINT('',(-3.774042610884E-03,0.226617632077));
#313 = CARTESIAN_POINT('',(-5.596702641093E-03,0.270524757835));
#314 = CARTESIAN_POINT('',(-7.725775516379E-03,0.313676419947));
#315 = CARTESIAN_POINT('',(-1.179920628332E-02,0.385262636514));
#316 = CARTESIAN_POINT('',(-1.359890147645E-02,0.414146410207));
#317 = CARTESIAN_POINT('',(-1.55248078971E-02,0.44263354095));
#318 = CARTESIAN_POINT('',(-1.756900611298E-02,0.470717250036));
#319 = CARTESIAN_POINT('',(-1.972387203214E-02,0.49839572353));
#320 = CARTESIAN_POINT('',(-2.198223809895E-02,0.525671608216));
#321 = CARTESIAN_POINT('',(-2.433755449003E-02,0.552551507526));
#322 = CARTESIAN_POINT('',(-3.03862285433E-02,0.618054741733));
#323 = CARTESIAN_POINT('',(-3.418523005659E-02,0.656218765663));
#324 = CARTESIAN_POINT('',(-3.816300645521E-02,0.693576486105));
#325 = CARTESIAN_POINT('',(-4.230338398216E-02,0.730165914818));
#326 = CARTESIAN_POINT('',(-4.659216088602E-02,0.766025391791));
#327 = CARTESIAN_POINT('',(-5.101720478871E-02,0.801194838544));
#328 = CARTESIAN_POINT('',(-5.556855005322E-02,0.835717011431));
#329 = CARTESIAN_POINT('',(-7.404957861215E-02,0.969960283519));
#330 = CARTESIAN_POINT('',(-8.885877168778E-02,1.064744663218));
#331 = CARTESIAN_POINT('',(-0.104494133846,1.155507014893));
#332 = CARTESIAN_POINT('',(-0.120833801286,1.24290807491));
#333 = CARTESIAN_POINT('',(-0.13777442152,1.327607296461));
#334 = CARTESIAN_POINT('',(-0.155245174187,1.410098552908));
#335 = CARTESIAN_POINT('',(-0.173203768549,1.490950272383));
#336 = CARTESIAN_POINT('',(-0.191647200317,1.570796326795));
#337 = ( GEOMETRIC_REPRESENTATION_CONTEXT(2) 
PARAMETRIC_REPRESENTATION_CONTEXT() REPRESENTATION_CONTEXT('2D SPACE',''
  ) );
#338 = PCURVE('',#232,#339);
#339 = DEFINITIONAL_REPRESENTATION('',(#340),#371);
#340 = B_SPLINE_CURVE_WITH_KNOTS('',8,(#341,#342,#343,#344,#345,#346,
    #347,#348,#349,#350,#351,#352,#353,#354,#355,#356,#357,#358,#359,
    #360,#361,#362,#363,#364,#365,#366,#367,#368,#369,#370),
  .UNSPECIFIED.,.F.,.F.,(9,7,7,7,9),(0.,0.17477556741,0.295654510722,
    0.473634581178,1.),.UNSPECIFIED.);
#341 = CARTESIAN_POINT('',(0.,0.));
#342 = CARTESIAN_POINT('',(-4.570830877215E-02,1.01492833631E-17));
#343 = CARTESIAN_POINT('',(-9.14348168146E-02,4.775632358249E-03));
#344 = CARTESIAN_POINT('',(-0.136942991031,1.433263339122E-02));
#345 = CARTESIAN_POINT('',(-0.182051573803,2.85296299587E-02));
#346 = CARTESIAN_POINT('',(-0.226617632077,4.712429116333E-02));
#347 = CARTESIAN_POINT('',(-0.270524757835,6.980908364763E-02));
#348 = CARTESIAN_POINT('',(-0.313676419947,9.623663048881E-02));
#349 = CARTESIAN_POINT('',(-0.385262636514,0.146643709773));
#350 = CARTESIAN_POINT('',(-0.414146410207,0.168875422605));
#351 = CARTESIAN_POINT('',(-0.44263354095,0.192619258615));
#352 = CARTESIAN_POINT('',(-0.470717250036,0.21776644491));
#353 = CARTESIAN_POINT('',(-0.49839572353,0.244212134891));
#354 = CARTESIAN_POINT('',(-0.525671608216,0.27185755386));
#355 = CARTESIAN_POINT('',(-0.552551507526,0.300612144636));
#356 = CARTESIAN_POINT('',(-0.618054741733,0.374248525575));
#357 = CARTESIAN_POINT('',(-0.656218765663,0.420321804418));
#358 = CARTESIAN_POINT('',(-0.693576486105,0.468363535156));
#359 = CARTESIAN_POINT('',(-0.730165914818,0.518148268974));
#360 = CARTESIAN_POINT('',(-0.766025391791,0.569477866744));
#361 = CARTESIAN_POINT('',(-0.801194838544,0.622182242983));
#362 = CARTESIAN_POINT('',(-0.835717011431,0.676120109816));
#363 = CARTESIAN_POINT('',(-0.969960283518,0.894015229395));
#364 = CARTESIAN_POINT('',(-1.064744690594,1.066198710459));
#365 = CARTESIAN_POINT('',(-1.155506898275,1.245178050469));
#366 = CARTESIAN_POINT('',(-1.242908311276,1.429143580679));
#367 = CARTESIAN_POINT('',(-1.327607011518,1.616630881915));
#368 = CARTESIAN_POINT('',(-1.410098769165,1.806648455859));
#369 = CARTESIAN_POINT('',(-1.490950170314,1.998580104943));
#370 = CARTESIAN_POINT('',(-1.570796354322,2.192235946638));
#371 = ( GEOMETRIC_REPRESENTATION_CONTEXT(2) 
PARAMETRIC_REPRESENTATION_CONTEXT() REPRESENTATION_CONTEXT('2D SPACE',''
  ) );
#372 = ORIENTED_EDGE('',*,*,#187,.T.);
#373 = ORIENTED_EDGE('',*,*,#374,.T.);
#374 = EDGE_CURVE('',#167,#375,#377,.T.);
#375 = VERTEX_POINT('',#376);
#376 = CARTESIAN_POINT('',(-2.,-10.30776406404,-4.440892098501E-16));
#377 = SURFACE_CURVE('',#378,(#406,#437),.PCURVE_S1.);
#378 = B_SPLINE_CURVE_WITH_KNOTS('',6,(#379,#380,#381,#382,#383,#384,
    #385,#386,#387,#388,#389,#390,#391,#392,#393,#394,#395,#396,#397,
    #398,#399,#400,#401,#402,#403,#404,#405),.UNSPECIFIED.,.F.,.F.,(7,5,
    5,5,5,7),(0.,0.174034784692,0.293981102361,0.470733399485,
    0.720390752268,1.),.UNSPECIFIED.);
#379 = CARTESIAN_POINT('',(-2.6645352591E-15,-12.5,2.));
#380 = CARTESIAN_POINT('',(-2.6645352591E-15,-12.5,1.878676440085));
#381 = CARTESIAN_POINT('',(-8.831885954208E-03,-12.49116798687,
    1.757285455995));
#382 = CARTESIAN_POINT('',(-2.651238843164E-02,-12.47348812793,
    1.637938240705));
#383 = CARTESIAN_POINT('',(-5.233369843148E-02,-12.44761816406,
    1.522234800219));
#384 = CARTESIAN_POINT('',(-8.530017687668E-02,-12.41446929842,
    1.411308980133));
#385 = CARTESIAN_POINT('',(-0.151190322926,-12.34791396644,
    1.233251448301));
#386 = CARTESIAN_POINT('',(-0.180961755057,-12.31777053934,
    1.163174047082));
#387 = CARTESIAN_POINT('',(-0.213292218797,-12.28494099259,
    1.095843746523));
#388 = CARTESIAN_POINT('',(-0.247861252926,-12.24971999037,
    1.031341476211));
#389 = CARTESIAN_POINT('',(-0.284377457102,-12.21237503467,
    0.969677185931));
#390 = CARTESIAN_POINT('',(-0.378922687836,-12.11529107319,
    0.824072851253));
#391 = CARTESIAN_POINT('',(-0.438931767766,-12.05334108652,
    0.743440288038));
#392 = CARTESIAN_POINT('',(-0.501862586175,-11.98797242286,
    0.668761936217));
#393 = CARTESIAN_POINT('',(-0.567087530149,-11.91975962911,
    0.599803647615));
#394 = CARTESIAN_POINT('',(-0.634118111535,-11.84914900615,
    0.536283640257));
#395 = CARTESIAN_POINT('',(-0.799347452418,-11.67376792481,
    0.395446673014));
#396 = CARTESIAN_POINT('',(-0.89894404629,-11.5669776815,0.323291409227)
  );
#397 = CARTESIAN_POINT('',(-1.000399740703,-11.45697857935,
    0.260599011377));
#398 = CARTESIAN_POINT('',(-1.102985110287,-11.34443560333,
    0.206701600942));
#399 = CARTESIAN_POINT('',(-1.206169052419,-11.22984015056,
    0.160984043392));
#400 = CARTESIAN_POINT('',(-1.425458556613,-10.98319238391,
    8.03284411808E-02));
#401 = CARTESIAN_POINT('',(-1.541581502425,-10.85074877105,
    4.735857668057E-02));
#402 = CARTESIAN_POINT('',(-1.657454139615,-10.7166404393,
    2.331390764901E-02));
#403 = CARTESIAN_POINT('',(-1.772674058554,-10.58124855796,
    7.670943038122E-03));
#404 = CARTESIAN_POINT('',(-1.886931852953,-10.44487933077,
    -6.829628855669E-08));
#405 = CARTESIAN_POINT('',(-2.,-10.30776406404,0.));
#406 = PCURVE('',#202,#407);
#407 = DEFINITIONAL_REPRESENTATION('',(#408),#436);
#408 = B_SPLINE_CURVE_WITH_KNOTS('',6,(#409,#410,#411,#412,#413,#414,
    #415,#416,#417,#418,#419,#420,#421,#422,#423,#424,#425,#426,#427,
    #428,#429,#430,#431,#432,#433,#434,#435),.UNSPECIFIED.,.F.,.F.,(7,5,
    5,5,5,7),(0.,0.174034784692,0.293981102361,0.470733399485,
    0.720390752268,1.),.UNSPECIFIED.);
#409 = CARTESIAN_POINT('',(-3.14159265359,0.));
#410 = CARTESIAN_POINT('',(-3.14159265359,6.066177995748E-02));
#411 = CARTESIAN_POINT('',(-3.140886082807,0.121357108465));
#412 = CARTESIAN_POINT('',(-3.139471743431,0.181433344147));
#413 = CARTESIAN_POINT('',(-3.137398259608,0.240490398331));
#414 = CARTESIAN_POINT('',(-3.134731746521,0.298226419106));
#415 = CARTESIAN_POINT('',(-3.129353839175,0.393155334601));
#416 = CARTESIAN_POINT('',(-3.12691242827,0.43118223127));
#417 = CARTESIAN_POINT('',(-3.124245852064,0.468470061097));
#418 = CARTESIAN_POINT('',(-3.121375557698,0.505009554445));
#419 = CARTESIAN_POINT('',(-3.118320949218,0.54081185982));
#420 = CARTESIAN_POINT('',(-3.110348479275,0.627615406595));
#421 = CARTESIAN_POINT('',(-3.10523484298,0.677769010809));
#422 = CARTESIAN_POINT('',(-3.09980683452,0.726469954727));
#423 = CARTESIAN_POINT('',(-3.094105739017,0.773820183141));
#424 = CARTESIAN_POINT('',(-3.088163379608,0.819929456341));
#425 = CARTESIAN_POINT('',(-3.073297290695,0.928483344377));
#426 = CARTESIAN_POINT('',(-3.064159621783,0.989785790717));
#427 = CARTESIAN_POINT('',(-3.054650478331,1.049187556155));
#428 = CARTESIAN_POINT('',(-3.044816135966,1.106930278053));
#429 = CARTESIAN_POINT('',(-3.034690938037,1.163241863658));
#430 = CARTESIAN_POINT('',(-3.01264990626,1.280067816273));
#431 = CARTESIAN_POINT('',(-3.000669772299,1.340250902499));
#432 = CARTESIAN_POINT('',(-2.988385358785,1.399198694537));
#433 = CARTESIAN_POINT('',(-2.97582285747,1.457133130966));
#434 = CARTESIAN_POINT('',(-2.963004055285,1.514262303351));
#435 = CARTESIAN_POINT('',(-2.949945458614,1.570796326795));
#436 = ( GEOMETRIC_REPRESENTATION_CONTEXT(2) 
PARAMETRIC_REPRESENTATION_CONTEXT() REPRESENTATION_CONTEXT('2D SPACE',''
  ) );
#437 = PCURVE('',#232,#438);
#438 = DEFINITIONAL_REPRESENTATION('',(#439),#467);
#439 = B_SPLINE_CURVE_WITH_KNOTS('',6,(#440,#441,#442,#443,#444,#445,
    #446,#447,#448,#449,#450,#451,#452,#453,#454,#455,#456,#457,#458,
    #459,#460,#461,#462,#463,#464,#465,#466),.UNSPECIFIED.,.F.,.F.,(7,5,
    5,5,5,7),(0.,0.174034784692,0.293981102361,0.470733399485,
    0.720390752268,1.),.UNSPECIFIED.);
#440 = CARTESIAN_POINT('',(0.,25.));
#441 = CARTESIAN_POINT('',(-6.066177995748E-02,25.));
#442 = CARTESIAN_POINT('',(-0.121357108465,24.99116798687));
#443 = CARTESIAN_POINT('',(-0.181433344147,24.973488127939));
#444 = CARTESIAN_POINT('',(-0.240490398331,24.947618164069));
#445 = CARTESIAN_POINT('',(-0.298226419106,24.914469298424));
#446 = CARTESIAN_POINT('',(-0.393155334601,24.847913966446));
#447 = CARTESIAN_POINT('',(-0.43118223127,24.817770539344));
#448 = CARTESIAN_POINT('',(-0.468470061097,24.784940992593));
#449 = CARTESIAN_POINT('',(-0.505009554445,24.749719990375));
#450 = CARTESIAN_POINT('',(-0.54081185982,24.712375034677));
#451 = CARTESIAN_POINT('',(-0.627615406595,24.615291073199));
#452 = CARTESIAN_POINT('',(-0.677769010809,24.553341086526));
#453 = CARTESIAN_POINT('',(-0.726469954727,24.487972422866));
#454 = CARTESIAN_POINT('',(-0.773820183141,24.419759629119));
#455 = CARTESIAN_POINT('',(-0.819929456341,24.349149006153));
#456 = CARTESIAN_POINT('',(-0.928483344377,24.173767924814));
#457 = CARTESIAN_POINT('',(-0.989785790717,24.066977681502));
#458 = CARTESIAN_POINT('',(-1.049187556155,23.956978579351));
#459 = CARTESIAN_POINT('',(-1.106930278053,23.844435603331));
#460 = CARTESIAN_POINT('',(-1.163241863658,23.729840150561));
#461 = CARTESIAN_POINT('',(-1.280067816273,23.483192383912));
#462 = CARTESIAN_POINT('',(-1.340250902499,23.350748771059));
#463 = CARTESIAN_POINT('',(-1.399198694538,23.216640439309));
#464 = CARTESIAN_POINT('',(-1.457133130965,23.081248557969));
#465 = CARTESIAN_POINT('',(-1.514262303351,22.944879330777));
#466 = CARTESIAN_POINT('',(-1.570796326795,22.807764064044));
#467 = ( GEOMETRIC_REPRESENTATION_CONTEXT(2) 
PARAMETRIC_REPRESENTATION_CONTEXT() REPRESENTATION_CONTEXT('2D SPACE',''
  ) );
#468 = ORIENTED_EDGE('',*,*,#469,.F.);
#469 = EDGE_CURVE('',#270,#375,#470,.T.);
#470 = SURFACE_CURVE('',#471,(#476,#483),.PCURVE_S1.);
#471 = CIRCLE('',#472,10.5);
#472 = AXIS2_PLACEMENT_3D('',#473,#474,#475);
#473 = CARTESIAN_POINT('',(0.,0.,0.));
#474 = DIRECTION('',(0.,0.,1.));
#475 = DIRECTION('',(-9.042596461969E-15,1.,0.));
#476 = PCURVE('',#202,#477);
#477 = DEFINITIONAL_REPRESENTATION('',(#478),#482);
#478 = LINE('',#479,#480);
#479 = CARTESIAN_POINT('',(-0.,1.570796326795));
#480 = VECTOR('',#481,1.);
#481 = DIRECTION('',(-1.,0.));
#482 = ( GEOMETRIC_REPRESENTATION_CONTEXT(2) 
PARAMETRIC_REPRESENTATION_CONTEXT() REPRESENTATION_CONTEXT('2D SPACE',''
  ) );
#483 = PCURVE('',#484,#489);
#484 = PLANE('',#485);
#485 = AXIS2_PLACEMENT_3D('',#486,#487,#488);
#486 = CARTESIAN_POINT('',(-4.375808424126E-16,8.024730275931E-16,0.));
#487 = DIRECTION('',(0.,0.,1.));
#488 = DIRECTION('',(1.,0.,-0.));
#489 = DEFINITIONAL_REPRESENTATION('',(#490),#494);
#490 = CIRCLE('',#491,10.5);
#491 = AXIS2_PLACEMENT_2D('',#492,#493);
#492 = CARTESIAN_POINT('',(4.375808424126E-16,-8.024730275931E-16));
#493 = DIRECTION('',(-9.042596461969E-15,1.));
#494 = ( GEOMETRIC_REPRESENTATION_CONTEXT(2) 
PARAMETRIC_REPRESENTATION_CONTEXT() REPRESENTATION_CONTEXT('2D SPACE',''
  ) );
#495 = ADVANCED_FACE('',(#496),#71,.F.);
#496 = FACE_BOUND('',#497,.F.);
#497 = EDGE_LOOP('',(#498,#499,#500));
#498 = ORIENTED_EDGE('',*,*,#245,.F.);
#499 = ORIENTED_EDGE('',*,*,#138,.F.);
#500 = ORIENTED_EDGE('',*,*,#54,.F.);
#501 = ADVANCED_FACE('',(#502),#125,.T.);
#502 = FACE_BOUND('',#503,.T.);
#503 = EDGE_LOOP('',(#504));
#504 = ORIENTED_EDGE('',*,*,#110,.T.);
#505 = ADVANCED_FACE('',(#506),#232,.T.);
#506 = FACE_BOUND('',#507,.F.);
#507 = EDGE_LOOP('',(#508,#509,#530,#531));
#508 = ORIENTED_EDGE('',*,*,#269,.T.);
#509 = ORIENTED_EDGE('',*,*,#510,.T.);
#510 = EDGE_CURVE('',#270,#375,#511,.T.);
#511 = SURFACE_CURVE('',#512,(#516,#523),.PCURVE_S1.);
#512 = LINE('',#513,#514);
#513 = CARTESIAN_POINT('',(-2.,12.5,-4.440892098501E-16));
#514 = VECTOR('',#515,1.);
#515 = DIRECTION('',(0.,-1.,0.));
#516 = PCURVE('',#232,#517);
#517 = DEFINITIONAL_REPRESENTATION('',(#518),#522);
#518 = LINE('',#519,#520);
#519 = CARTESIAN_POINT('',(-1.570796326795,0.));
#520 = VECTOR('',#521,1.);
#521 = DIRECTION('',(-0.,1.));
#522 = ( GEOMETRIC_REPRESENTATION_CONTEXT(2) 
PARAMETRIC_REPRESENTATION_CONTEXT() REPRESENTATION_CONTEXT('2D SPACE',''
  ) );
#523 = PCURVE('',#484,#524);
#524 = DEFINITIONAL_REPRESENTATION('',(#525),#529);
#525 = LINE('',#526,#527);
#526 = CARTESIAN_POINT('',(-2.,12.5));
#527 = VECTOR('',#528,1.);
#528 = DIRECTION('',(0.,-1.));
#529 = ( GEOMETRIC_REPRESENTATION_CONTEXT(2) 
PARAMETRIC_REPRESENTATION_CONTEXT() REPRESENTATION_CONTEXT('2D SPACE',''
  ) );
#530 = ORIENTED_EDGE('',*,*,#374,.F.);
#531 = ORIENTED_EDGE('',*,*,#218,.F.);
#532 = ADVANCED_FACE('',(#533),#484,.F.);
#533 = FACE_BOUND('',#534,.F.);
#534 = EDGE_LOOP('',(#535,#536));
#535 = ORIENTED_EDGE('',*,*,#510,.F.);
#536 = ORIENTED_EDGE('',*,*,#469,.T.);
#537 = ( GEOMETRIC_REPRESENTATION_CONTEXT(3) 
GLOBAL_UNCERTAINTY_ASSIGNED_CONTEXT((#541)) GLOBAL_UNIT_ASSIGNED_CONTEXT
((#538,#539,#540)) REPRESENTATION_CONTEXT('Context #1',
  '3D Context with UNIT and UNCERTAINTY') );
#538 = ( LENGTH_UNIT() NAMED_UNIT(*) SI_UNIT(.MILLI.,.METRE.) );
#539 = ( NAMED_UNIT(*) PLANE_ANGLE_UNIT() SI_UNIT($,.RADIAN.) );
#540 = ( NAMED_UNIT(*) SI_UNIT($,.STERADIAN.) SOLID_ANGLE_UNIT() );
#541 = UNCERTAINTY_MEASURE_WITH_UNIT(LENGTH_MEASURE(1.E-07),#538,
  'distance_accuracy_value','confusion accuracy');
#542 = PRODUCT_RELATED_PRODUCT_CATEGORY('part',$,(#7));
ENDSEC;
END-ISO-10303-21;
